#Comment line ignore any data following # character 
#Hierarchical Translation and Rotation (.htr) file 
[Header]	
#Header keywords are followed by a single value 
FileType HTR		#Single word string
DataType HTRS		#Translation followed by rotation and scale data
FileVersion 1		#integer
NumSegments 84		#integer
NumFrames 2		#integer
DataFrameRate 30		#integer, data frame rate in this file
EulerRotationOrder ZYX
CalibrationUnits mm
RotationUnits Degrees
GlobalAxisofGravity Y
BoneLengthAxis Y
ScaleFactor 1.00
[SegmentNames&Hierarchy]
#CHILD	PARENT
MASTER GLOBAL
root MASTER
chest root
L_mid_tent01 root
R_mid_tent01 root
spine01 root
Bip01_Neck chest
L_humerus chest
R_humerus chest
weapon_bone chest
Bip01_Head Bip01_Neck
eye_left_bone Bip01_Head
eye_right_bone Bip01_Head
L_forearm L_humerus
L_front_hand L_forearm
L_weapon_bone L_forearm
L_front_hand01_01 L_front_hand
L_front_hand02_01 L_front_hand
L_front_hand03_01 L_front_hand
L_front_hand01_02 L_front_hand01_01
L_front_hand02_02 L_front_hand02_01
L_front_hand03_02 L_front_hand03_01
R_forearm R_humerus
R_front_hand R_forearm
R_weapon_bone R_forearm
R_front_hand01_01 R_front_hand
R_front_hand02_01 R_front_hand
R_front_hand03_01 R_front_hand
R_front_hand01_02 R_front_hand01_01
R_front_hand02_02 R_front_hand02_01
R_front_hand03_02 R_front_hand03_01
null_rope01_connect L_mid_tent01
Rope1_Seg01 null_rope01_connect
Rope1_Seg02 Rope1_Seg01
Rope1_Seg03 Rope1_Seg02
Rope1_Seg04 Rope1_Seg03
Rope1_Seg05 Rope1_Seg04
Rope1_Seg06 Rope1_Seg05
Rope1_Seg07 Rope1_Seg06
Rope1_Seg09 Rope1_Seg07
L_mid_hand01 Rope1_Seg09
L_mid_hand02 Rope1_Seg09
L_mid_hand03 Rope1_Seg09
null_rope02_connect R_mid_tent01
Rope2_Seg01 null_rope02_connect
Rope2_Seg02 Rope2_Seg01
Rope2_Seg03 Rope2_Seg02
Rope2_Seg04 Rope2_Seg03
Rope2_Seg05 Rope2_Seg04
Rope2_Seg06 Rope2_Seg05
Rope2_Seg07 Rope2_Seg06
Rope2_Seg09 Rope2_Seg07
R_mid_hand01 Rope2_Seg09
R_mid_hand02 Rope2_Seg09
R_mid_hand03 Rope2_Seg09
spine02 spine01
spine03 spine02
pelvis spine03
null_rope03_connect pelvis
null_rope04_connect pelvis
Rope3_Seg01 null_rope03_connect
Rope3_Seg02 Rope3_Seg01
Rope3_Seg03 Rope3_Seg02
Rope3_Seg04 Rope3_Seg03
Rope3_Seg05 Rope3_Seg04
Rope3_Seg06 Rope3_Seg05
Rope3_Seg07 Rope3_Seg06
Rope3_Seg08 Rope3_Seg07
Rope3_Seg09 Rope3_Seg08
R_rear_hand01 Rope3_Seg09
R_rear_hand02 Rope3_Seg09
R_rear_hand03 Rope3_Seg09
Rope4_Seg01 null_rope04_connect
Rope4_Seg02 Rope4_Seg01
Rope4_Seg03 Rope4_Seg02
Rope4_Seg04 Rope4_Seg03
Rope4_Seg05 Rope4_Seg04
Rope4_Seg06 Rope4_Seg05
Rope4_Seg07 Rope4_Seg06
Rope4_Seg08 Rope4_Seg07
Rope4_Seg09 Rope4_Seg08
L_rear_hand01 Rope4_Seg09
L_rear_hand02 Rope4_Seg09
L_rear_hand03 Rope4_Seg09
[BasePosition]
#SegmentName Tx, Ty, Tz, Rx, Ry, Rz, BoneLength
MASTER 0.000000 0.000000 0.000000 -90.000000 0.000000 0.000000 10.000000 
root 0.000000 0.000000 0.000000 0.000000 0.000000 0.000000 10.000000 
chest 0.000000 0.000000 0.000000 0.000000 0.000000 0.000000 10.000000 
L_mid_tent01 0.000000 0.000000 0.000000 0.000000 0.000000 0.000000 10.000000 
R_mid_tent01 0.000000 0.000000 0.000000 0.000000 0.000000 0.000000 10.000000 
spine01 0.000000 0.000000 0.000000 0.000000 0.000000 0.000000 10.000000 
Bip01_Neck 0.000000 0.000000 0.000000 0.000000 0.000000 0.000000 10.000000 
L_humerus 0.000000 0.000000 0.000000 0.000000 0.000000 0.000000 10.000000 
R_humerus 0.000000 0.000000 0.000000 0.000000 0.000000 0.000000 10.000000 
weapon_bone 0.000000 0.000000 0.000000 0.000000 0.000000 0.000000 10.000000 
Bip01_Head 0.000000 0.000000 0.000000 0.000000 0.000000 0.000000 10.000000 
eye_left_bone 0.000000 0.000000 0.000000 0.000000 0.000000 0.000000 10.000000 
eye_right_bone 0.000000 0.000000 0.000000 0.000000 0.000000 0.000000 10.000000 
L_forearm 0.000000 0.000000 0.000000 0.000000 0.000000 0.000000 10.000000 
L_front_hand 0.000000 0.000000 0.000000 0.000000 0.000000 0.000000 10.000000 
L_weapon_bone 0.000000 0.000000 0.000000 0.000000 0.000000 0.000000 10.000000 
L_front_hand01_01 0.000000 0.000000 0.000000 0.000000 0.000000 0.000000 10.000000 
L_front_hand02_01 0.000000 0.000000 0.000000 0.000000 0.000000 0.000000 10.000000 
L_front_hand03_01 0.000000 0.000000 0.000000 0.000000 0.000000 0.000000 10.000000 
L_front_hand01_02 0.000000 0.000000 0.000000 0.000000 0.000000 0.000000 10.000000 
L_front_hand02_02 0.000000 0.000000 0.000000 0.000000 0.000000 0.000000 10.000000 
L_front_hand03_02 0.000000 0.000000 0.000000 0.000000 0.000000 0.000000 10.000000 
R_forearm 0.000000 0.000000 0.000000 0.000000 0.000000 0.000000 10.000000 
R_front_hand 0.000000 0.000000 0.000000 0.000000 0.000000 0.000000 10.000000 
R_weapon_bone 0.000000 0.000000 0.000000 0.000000 0.000000 0.000000 10.000000 
R_front_hand01_01 0.000000 0.000000 0.000000 0.000000 0.000000 0.000000 10.000000 
R_front_hand02_01 0.000000 0.000000 0.000000 0.000000 0.000000 0.000000 10.000000 
R_front_hand03_01 0.000000 0.000000 0.000000 0.000000 0.000000 0.000000 10.000000 
R_front_hand01_02 0.000000 0.000000 0.000000 0.000000 0.000000 0.000000 10.000000 
R_front_hand02_02 0.000000 0.000000 0.000000 0.000000 0.000000 0.000000 10.000000 
R_front_hand03_02 0.000000 0.000000 0.000000 0.000000 0.000000 0.000000 10.000000 
null_rope01_connect 0.000000 0.000000 0.000000 0.000000 0.000000 0.000000 10.000000 
Rope1_Seg01 0.000000 0.000000 0.000000 0.000000 0.000000 0.000000 10.000000 
Rope1_Seg02 0.000000 0.000000 0.000000 0.000000 0.000000 0.000000 10.000000 
Rope1_Seg03 0.000000 0.000000 0.000000 0.000000 0.000000 0.000000 10.000000 
Rope1_Seg04 0.000000 0.000000 0.000000 0.000000 0.000000 0.000000 10.000000 
Rope1_Seg05 0.000000 0.000000 0.000000 0.000000 0.000000 0.000000 10.000000 
Rope1_Seg06 0.000000 0.000000 0.000000 0.000000 0.000000 0.000000 10.000000 
Rope1_Seg07 0.000000 0.000000 0.000000 0.000000 0.000000 0.000000 10.000000 
Rope1_Seg09 0.000000 0.000000 0.000000 0.000000 0.000000 0.000000 10.000000 
L_mid_hand01 0.000000 0.000000 0.000000 0.000000 0.000000 0.000000 10.000000 
L_mid_hand02 0.000000 0.000000 0.000000 0.000000 0.000000 0.000000 10.000000 
L_mid_hand03 0.000000 0.000000 0.000000 0.000000 0.000000 0.000000 10.000000 
null_rope02_connect 0.000000 0.000000 0.000000 0.000000 0.000000 0.000000 10.000000 
Rope2_Seg01 0.000000 0.000000 0.000000 0.000000 0.000000 0.000000 10.000000 
Rope2_Seg02 0.000000 0.000000 0.000000 0.000000 0.000000 0.000000 10.000000 
Rope2_Seg03 0.000000 0.000000 0.000000 0.000000 0.000000 0.000000 10.000000 
Rope2_Seg04 0.000000 0.000000 0.000000 0.000000 0.000000 0.000000 10.000000 
Rope2_Seg05 0.000000 0.000000 0.000000 0.000000 0.000000 0.000000 10.000000 
Rope2_Seg06 0.000000 0.000000 0.000000 0.000000 0.000000 0.000000 10.000000 
Rope2_Seg07 0.000000 0.000000 0.000000 0.000000 0.000000 0.000000 10.000000 
Rope2_Seg09 0.000000 0.000000 0.000000 0.000000 0.000000 0.000000 10.000000 
R_mid_hand01 0.000000 0.000000 0.000000 0.000000 0.000000 0.000000 10.000000 
R_mid_hand02 0.000000 0.000000 0.000000 0.000000 0.000000 0.000000 10.000000 
R_mid_hand03 0.000000 0.000000 0.000000 0.000000 0.000000 0.000000 10.000000 
spine02 0.000000 0.000000 0.000000 0.000000 0.000000 0.000000 10.000000 
spine03 0.000000 0.000000 0.000000 0.000000 0.000000 0.000000 10.000000 
pelvis 0.000000 0.000000 0.000000 0.000000 0.000000 0.000000 10.000000 
null_rope03_connect 0.000000 0.000000 0.000000 0.000000 0.000000 0.000000 10.000000 
null_rope04_connect 0.000000 0.000000 0.000000 0.000000 0.000000 0.000000 10.000000 
Rope3_Seg01 0.000000 0.000000 0.000000 0.000000 0.000000 0.000000 10.000000 
Rope3_Seg02 0.000000 0.000000 0.000000 0.000000 0.000000 0.000000 10.000000 
Rope3_Seg03 0.000000 0.000000 0.000000 0.000000 0.000000 0.000000 10.000000 
Rope3_Seg04 0.000000 0.000000 0.000000 0.000000 0.000000 0.000000 10.000000 
Rope3_Seg05 0.000000 0.000000 0.000000 0.000000 0.000000 0.000000 10.000000 
Rope3_Seg06 0.000000 0.000000 0.000000 0.000000 0.000000 0.000000 10.000000 
Rope3_Seg07 0.000000 0.000000 0.000000 0.000000 0.000000 0.000000 10.000000 
Rope3_Seg08 0.000000 0.000000 0.000000 0.000000 0.000000 0.000000 10.000000 
Rope3_Seg09 0.000000 0.000000 0.000000 0.000000 0.000000 0.000000 10.000000 
R_rear_hand01 0.000000 0.000000 0.000000 0.000000 0.000000 0.000000 10.000000 
R_rear_hand02 0.000000 0.000000 0.000000 0.000000 0.000000 0.000000 10.000000 
R_rear_hand03 0.000000 0.000000 0.000000 0.000000 0.000000 0.000000 10.000000 
Rope4_Seg01 0.000000 0.000000 0.000000 0.000000 0.000000 0.000000 10.000000 
Rope4_Seg02 0.000000 0.000000 0.000000 0.000000 0.000000 0.000000 10.000000 
Rope4_Seg03 0.000000 0.000000 0.000000 0.000000 0.000000 0.000000 10.000000 
Rope4_Seg04 0.000000 0.000000 0.000000 0.000000 0.000000 0.000000 10.000000 
Rope4_Seg05 0.000000 0.000000 0.000000 0.000000 0.000000 0.000000 10.000000 
Rope4_Seg06 0.000000 0.000000 0.000000 0.000000 0.000000 0.000000 10.000000 
Rope4_Seg07 0.000000 0.000000 0.000000 0.000000 0.000000 0.000000 10.000000 
Rope4_Seg08 0.000000 0.000000 0.000000 0.000000 0.000000 0.000000 10.000000 
Rope4_Seg09 0.000000 0.000000 0.000000 0.000000 0.000000 0.000000 10.000000 
L_rear_hand01 0.000000 0.000000 0.000000 0.000000 0.000000 0.000000 10.000000 
L_rear_hand02 0.000000 0.000000 0.000000 0.000000 0.000000 0.000000 10.000000 
L_rear_hand03 0.000000 0.000000 0.000000 0.000000 0.000000 0.000000 10.000000 
#Beginning of Data. Separated by tabs
#Fr	Tx	Ty	Tz	Rx	Ry	Rz	SF
[MASTER]
32 312.030945 5761.843750 2163.627930 0.001660 0.001660 0.001660 6162.587891
33 312.030945 5761.843750 2163.627930 0.001660 0.001660 0.001660 6162.587891
[root]
32 628.118103 -117.306519 546.129456 -43.397591 -43.352314 -62.064140 840.565613
33 628.118103 -117.306519 546.129456 -43.397583 -43.352306 -62.064140 840.565613
[chest]
32 -84.512650 -34.090519 0.000000 29.108437 -47.146847 173.373276 91.129311
33 -84.512650 -34.090519 0.000000 29.108437 -47.146847 173.373276 91.129311
[L_mid_tent01]
32 27.299351 22.179373 -249.918671 -8.364876 16.823362 65.619553 252.381699
33 27.299360 22.179377 -249.918671 -8.427917 16.781269 65.618263 252.381699
[R_mid_tent01]
32 23.228794 24.509907 226.238495 155.720566 -39.147781 63.063808 228.744751
33 23.228794 24.509907 226.238495 155.374191 -39.609421 63.382580 228.744751
[spine01]
32 -0.361383 -0.195265 0.000000 -0.000001 -0.000007 22.052340 0.410763
33 -0.361383 -0.195265 0.000000 -0.000001 -0.000007 22.052340 0.410763
[Bip01_Neck]
32 165.484543 71.581718 0.000119 176.643677 -1.657967 43.431911 180.302734
33 165.484543 71.581718 0.000119 176.643677 -1.657967 43.431911 180.302734
[L_humerus]
32 -13.983130 -135.272980 -120.471481 166.323105 55.897530 -100.617271 181.680161
33 -13.983130 -135.272980 -120.471481 166.421478 55.721119 -100.477600 181.680161
[R_humerus]
32 -13.983309 -135.273102 125.287651 -176.085327 -40.318008 -88.075508 184.909012
33 -13.983309 -135.273102 125.287651 -176.105011 -40.061413 -88.049095 184.909012
[weapon_bone]
32 235.964890 -300.705902 0.000000 0.000000 -89.951546 -128.212341 382.234833
33 235.964890 -300.705902 0.000000 0.000000 -89.951546 -128.212341 382.234833
[Bip01_Head]
32 213.360596 185.947372 8.782414 13.107246 -2.166769 -48.700687 283.154205
33 213.363327 185.939636 8.882292 13.107245 -2.166770 -48.700684 283.154297
[eye_left_bone]
32 -24.626970 125.451866 -64.772606 0.000000 -90.000000 -99.840431 143.318359
33 -24.626970 125.451866 -64.772606 0.000000 -90.000000 -99.840431 143.318359
[eye_right_bone]
32 -24.626970 125.451866 64.327362 0.000000 -89.965736 80.156380 143.117676
33 -24.626970 125.451866 64.327362 0.000000 -89.965736 80.156380 143.117676
[L_forearm]
32 322.776093 0.000000 -0.000119 0.000434 -0.002307 -111.299591 322.776093
33 322.776093 0.000000 -0.000119 0.000433 -0.002307 -111.280418 322.776093
[L_front_hand]
32 241.149185 -0.042021 -3.300071 -178.667953 -1.835447 -27.422342 241.171753
33 241.149185 -0.042021 -3.300071 -178.667953 -1.835447 -27.422350 241.171753
[L_weapon_bone]
32 156.183838 0.000000 0.000000 0.000014 0.000007 0.000001 156.183838
33 156.183838 0.000000 0.000000 0.000014 0.000007 0.000001 156.183838
[L_front_hand01_01]
32 86.095154 20.947098 -0.655860 -0.366594 -0.477154 75.385574 88.609184
33 86.095154 20.947098 -0.655860 -0.366594 -0.477154 75.385574 88.609184
[L_front_hand02_01]
32 86.935165 -11.437475 24.513514 154.399796 -59.883835 -61.369587 91.046425
33 86.935165 -11.437475 24.513514 154.399796 -59.883835 -61.369587 91.046425
[L_front_hand03_01]
32 86.637497 -14.123976 -20.424902 -153.913849 58.118122 -62.702866 90.126129
33 86.637497 -14.123976 -20.424902 -153.913849 58.118122 -62.702866 90.126129
[L_front_hand01_02]
32 71.020905 -0.000179 0.000030 0.000334 -0.002323 -106.371452 71.020905
33 71.020905 -0.000179 0.000030 0.000334 -0.002323 -106.372131 71.020905
[L_front_hand02_02]
32 71.020927 -0.000119 0.000060 0.000334 -0.002323 -106.371452 71.020927
33 71.020927 -0.000119 0.000060 0.000334 -0.002323 -106.372131 71.020927
[L_front_hand03_02]
32 71.020905 -0.000060 0.000060 0.000334 -0.002323 -106.371452 71.020905
33 71.020905 -0.000060 0.000060 0.000334 -0.002323 -106.372131 71.020905
[R_forearm]
32 322.776428 -0.000060 0.000030 0.201000 0.068483 -109.953239 322.776428
33 322.776428 -0.000060 0.000030 0.201006 0.068466 -109.943588 322.776428
[R_front_hand]
32 238.847015 -0.006795 2.210259 -2.635298 -10.645461 -26.312506 238.857239
33 238.847015 -0.006795 2.210259 -2.635298 -10.645461 -26.312506 238.857239
[R_weapon_bone]
32 155.664093 0.002503 -0.000030 0.003487 0.001180 -90.988930 155.664078
33 155.664093 0.002503 -0.000030 0.003487 0.001180 -90.988930 155.664078
[R_front_hand01_01]
32 87.624611 14.231146 22.918642 -154.633484 -59.950607 61.746033 91.683487
33 87.624611 14.231146 22.918642 -154.633484 -59.950607 61.746033 91.683487
[R_front_hand02_01]
32 89.356956 14.367283 -19.491137 154.602661 58.302856 63.744389 92.579636
33 89.356956 14.367283 -19.491137 154.602661 58.302849 63.744389 92.579636
[R_front_hand03_01]
32 87.286232 -22.307278 -0.143439 0.162155 -0.423168 -75.767906 90.091743
33 87.286232 -22.307278 -0.143439 0.162155 -0.423168 -75.767906 90.091743
[R_front_hand01_02]
32 71.020905 0.000060 0.000119 0.002323 -0.000334 106.381714 71.020905
33 71.020905 0.000060 0.000119 0.002323 -0.000334 106.381714 71.020905
[R_front_hand02_02]
32 71.020844 -0.000030 -0.000119 0.002323 -0.000334 106.381714 71.020836
33 71.020844 -0.000030 -0.000119 0.002323 -0.000334 106.381714 71.020836
[R_front_hand03_02]
32 71.020905 0.000000 0.000030 0.002323 -0.000334 106.381714 71.020905
33 71.020905 0.000000 0.000030 0.002323 -0.000334 106.381714 71.020905
[null_rope01_connect]
32 328.732483 0.000000 -0.000238 64.959526 -38.717735 -3.351932 328.732483
33 328.732483 0.000000 -0.000238 65.035416 -38.672428 -3.387737 328.732483
[Rope1_Seg01]
32 0.000038 -0.000480 0.000153 39.605808 36.947689 -128.457962 0.000505
33 0.000038 -0.000494 0.000153 39.587902 36.937813 -128.471420 0.000519
[Rope1_Seg02]
32 139.999863 -0.000179 0.000000 4.251776 19.209412 -2.315569 139.999863
33 139.999863 -0.000179 0.000000 4.253772 19.178965 -2.306217 139.999863
[Rope1_Seg03]
32 139.999924 0.000060 -0.000060 -0.095661 15.007126 -6.194558 139.999924
33 139.999924 0.000060 -0.000060 -0.090372 15.027323 -6.184028 139.999924
[Rope1_Seg04]
32 139.999924 -0.000060 -0.000119 -1.189508 12.339186 -2.962826 139.999924
33 139.999924 -0.000060 -0.000119 -1.186366 12.329166 -2.982255 139.999924
[Rope1_Seg05]
32 139.999832 0.000119 -0.000060 -9.187010 34.077526 7.633122 139.999832
33 139.999832 0.000119 -0.000060 -9.163927 34.042046 7.610955 139.999832
[Rope1_Seg06]
32 139.999954 0.000119 -0.000060 -14.157852 27.436920 13.051075 139.999954
33 139.999954 0.000119 -0.000060 -14.172713 27.486496 13.058401 139.999954
[Rope1_Seg07]
32 139.999985 0.000060 0.000000 -6.535590 8.734119 7.113807 139.999985
33 139.999985 0.000060 0.000000 -6.544001 8.750139 7.122313 139.999985
[Rope1_Seg09]
32 121.602913 0.000119 -0.000089 -89.793175 -1.359789 0.847147 121.602913
33 121.602913 0.000119 -0.000089 -89.793175 -1.359789 0.847147 121.602913
[L_mid_hand01]
32 103.859421 1.038730 8.195221 130.544373 -67.584534 -38.866943 104.187431
33 103.859421 1.038730 8.195221 130.544373 -67.584534 -38.866943 104.187431
[L_mid_hand02]
32 105.572853 -4.139662 -10.864139 -168.923172 43.409309 -73.498894 106.211075
33 105.572853 -4.139662 -10.864139 -168.923172 43.409309 -73.498894 106.211075
[L_mid_hand03]
32 104.641464 17.579376 -3.913581 -6.012627 17.808178 74.893677 106.179977
33 104.641464 17.579376 -3.913581 -6.012627 17.808174 74.893669 106.179977
[null_rope02_connect]
32 328.732849 0.000179 -0.000119 -96.264397 -13.399533 -11.878000 328.732849
33 328.732849 0.000179 -0.000119 -96.003616 -13.886386 -11.905477 328.732849
[Rope2_Seg01]
32 0.000081 -0.000384 0.000000 51.557873 -23.614859 116.636490 0.000393
33 0.000081 -0.000400 0.000000 51.390160 -23.763420 116.730270 0.000408
[Rope2_Seg02]
32 139.999741 -0.000060 -0.000119 8.671693 -3.742670 -8.333050 139.999756
33 139.999741 -0.000060 -0.000119 8.832057 -3.797584 -8.512729 139.999756
[Rope2_Seg03]
32 140.000107 0.000030 0.000000 16.614355 -10.069516 -16.040939 140.000107
33 140.000107 0.000030 0.000000 17.006289 -10.348560 -16.493231 140.000107
[Rope2_Seg04]
32 139.999802 0.000000 -0.000060 25.298616 -31.841690 -30.135204 139.999802
33 139.999802 0.000000 -0.000060 25.181225 -32.232807 -30.248535 139.999802
[Rope2_Seg05]
32 139.999985 -0.000060 0.000119 3.320832 -17.683533 -11.215974 139.999985
33 139.999985 -0.000060 0.000119 3.066613 -16.860497 -10.955669 139.999985
[Rope2_Seg06]
32 139.999893 -0.000030 -0.000119 0.092608 2.555051 -10.260000 139.999893
33 139.999893 -0.000030 -0.000119 0.106077 2.573937 -10.359060 139.999893
[Rope2_Seg07]
32 139.999893 0.000060 -0.000060 1.891414 -3.957370 -12.623469 139.999893
33 139.999893 0.000060 -0.000060 1.929447 -4.084314 -12.650406 139.999893
[Rope2_Seg09]
32 121.338966 0.000089 -0.000060 33.793236 -1.359788 -0.847141 121.338966
33 121.338966 0.000089 -0.000060 33.793236 -1.359788 -0.847141 121.338966
[R_mid_hand01]
32 104.680779 11.144459 -10.335981 -16.212059 45.237247 70.462852 105.778534
33 104.680779 11.144459 -10.335981 -16.212067 45.237247 70.462852 105.778534
[R_mid_hand02]
32 104.070427 2.443552 8.231699 49.067371 -67.749794 39.286461 104.424065
33 104.070427 2.443552 8.231699 49.067371 -67.749794 39.286461 104.424065
[R_mid_hand03]
32 106.028137 -11.221827 -5.996406 -177.101105 15.551026 -76.585571 106.788818
33 106.028137 -11.221827 -5.996406 -177.101105 15.551026 -76.585571 106.788818
[spine02]
32 129.756927 0.001550 0.000119 0.548879 -4.022385 -15.627302 129.756927
33 129.756927 0.001550 0.000119 0.548440 -4.022445 -15.614801 129.756927
[spine03]
32 78.613770 0.081692 -4.898935 2.008453 3.773954 18.167755 78.766312
33 78.613762 0.081693 -4.898934 2.007033 3.774407 18.149345 78.766304
[pelvis]
32 169.435242 0.051022 0.000000 -0.023573 -0.190758 2.529254 169.435257
33 169.435242 0.051022 0.000000 -0.021372 -0.190889 1.950400 169.435257
[null_rope03_connect]
32 -1.257226 -2.466202 137.391083 54.613125 -20.744425 41.580036 137.418976
33 -1.257226 -2.466202 137.391083 54.613918 -20.746410 42.155834 137.418976
[null_rope04_connect]
32 -1.259640 -2.480268 -137.844437 54.613125 -20.744425 41.580036 137.872513
33 -1.259640 -2.480268 -137.844437 54.613918 -20.746410 42.155834 137.872513
[Rope3_Seg01]
32 -0.000035 0.000000 -0.000057 84.266068 -53.180641 -141.608658 0.000067
33 -0.000034 0.000000 -0.000059 84.874771 -53.271893 -142.020309 0.000068
[Rope3_Seg02]
32 139.999924 -0.000119 0.000060 7.741887 -0.754616 17.196970 139.999924
33 139.999924 -0.000119 0.000060 7.526965 -0.412401 17.063076 139.999924
[Rope3_Seg03]
32 139.999924 -0.000119 0.000119 4.805189 1.633928 22.904438 139.999924
33 139.999924 -0.000119 0.000119 4.752990 1.990757 22.964663 139.999924
[Rope3_Seg04]
32 139.999924 0.000119 0.000000 0.364011 -0.692679 25.157627 139.999924
33 139.999924 0.000119 0.000000 0.350318 -0.229692 25.498327 139.999924
[Rope3_Seg05]
32 139.999924 -0.000238 0.000060 -0.042971 3.337990 8.498599 139.999924
33 139.999924 -0.000238 0.000060 -0.023747 3.515261 8.534250 139.999924
[Rope3_Seg06]
32 139.999893 -0.000119 -0.000060 4.346977 12.342318 -1.370041 139.999893
33 139.999893 -0.000119 -0.000060 4.555750 12.402578 -1.783434 139.999893
[Rope3_Seg07]
32 139.999771 0.000060 -0.000119 10.854314 25.073500 -8.784481 139.999771
33 139.999771 0.000060 -0.000119 10.607179 24.066927 -8.970406 139.999771
[Rope3_Seg08]
32 139.999985 -0.000060 0.000000 9.684610 17.594252 -7.051540 139.999985
33 139.999985 -0.000060 0.000000 9.317715 16.986652 -7.079846 139.999985
[Rope3_Seg09]
32 90.185997 -0.000179 -0.000060 89.793228 -1.359877 -0.847183 90.185997
33 90.185997 -0.000179 -0.000060 89.793228 -1.359877 -0.847183 90.185997
[R_rear_hand01]
32 103.366196 -6.073594 -10.757982 -177.714203 24.565960 -73.910950 104.101845
33 103.366196 -6.073594 -10.757982 -177.714203 24.565960 -73.910950 104.101845
[R_rear_hand02]
32 100.509819 12.039542 -7.992327 -12.874829 36.868488 72.167213 101.543350
33 100.509819 12.039542 -7.992327 -12.874833 36.868488 72.167213 101.543350
[R_rear_hand03]
32 101.539970 5.215704 5.435467 71.484581 -71.816643 21.513824 101.819031
33 101.539970 5.215704 5.435467 71.484581 -71.816628 21.513813 101.819031
[Rope4_Seg01]
32 0.000002 -0.000480 -0.000153 -108.531143 19.475975 -135.139847 0.000504
33 0.000002 -0.000494 -0.000153 -108.439636 19.384771 -135.037170 0.000517
[Rope4_Seg02]
32 139.999985 0.000060 0.000119 -0.366637 -9.712508 -3.183975 139.999985
33 139.999985 0.000060 0.000119 -0.367743 -9.762250 -3.193770 139.999985
[Rope4_Seg03]
32 139.999924 0.000000 -0.000238 0.194089 -14.771778 -5.075365 139.999924
33 139.999924 0.000000 -0.000238 0.198011 -14.854866 -5.089809 139.999924
[Rope4_Seg04]
32 139.999985 0.000000 0.000119 0.587879 -16.212049 -4.324344 139.999985
33 139.999985 0.000000 0.000119 0.587597 -16.204544 -4.254236 139.999985
[Rope4_Seg05]
32 139.999802 -0.000060 -0.000119 1.801641 -19.235962 -7.791555 139.999802
33 139.999802 -0.000060 -0.000119 1.850110 -19.516088 -7.986135 139.999802
[Rope4_Seg06]
32 139.999924 0.000000 0.000060 3.521755 -31.097198 -17.210403 139.999924
33 139.999924 0.000000 0.000060 3.411223 -31.361736 -17.530506 139.999924
[Rope4_Seg07]
32 139.999802 0.000000 0.000000 -6.175073 -18.939453 -10.081385 139.999802
33 139.999802 0.000000 0.000000 -7.850904 -18.537283 -9.988908 139.999802
[Rope4_Seg08]
32 139.999924 0.000000 0.000119 -142.504196 -7.005675 -4.780090 139.999924
33 139.999924 0.000000 0.000119 -142.018387 -6.722621 -4.933543 139.999924
[Rope4_Seg09]
32 90.185791 0.000060 0.000060 -135.617828 2.228885 0.850567 90.185791
33 90.185791 0.000060 0.000060 -135.617828 2.228885 0.850567 90.185791
[L_rear_hand01]
32 101.696655 -8.392275 -7.654577 -12.874829 -36.868488 107.832764 102.329041
33 101.696655 -8.392275 -7.654577 -12.874831 -36.868492 107.832779 102.329041
[L_rear_hand02]
32 102.726799 -1.568258 5.773216 71.484581 71.816628 158.486160 102.900848
33 102.726799 -1.568258 5.773216 71.484581 71.816628 158.486145 102.900848
[L_rear_hand03]
32 104.552910 9.721220 -10.420293 -177.714203 -24.565960 -106.089035 105.519653
33 104.552910 9.721220 -10.420293 -177.714203 -24.565960 -106.089035 105.519653
